<svg width="33" height="33" viewBox="0 0 33 33" fill="none" xmlns="http://www.w3.org/2000/svg">
<path d="M18.3125 21.9375L23.75 16.5M23.75 16.5L18.3125 11.0625M23.75 16.5H9.25M7.8 31H25.2C27.2302 31 28.2454 31 29.0208 30.6049C29.7028 30.2574 30.2574 29.7028 30.6049 29.0208C31 28.2454 31 27.2302 31 25.2V7.8C31 5.76982 31 4.75471 30.6049 3.97929C30.2574 3.29719 29.7028 2.74264 29.0208 2.39511C28.2454 2 27.2302 2 25.2 2H7.8C5.76982 2 4.75471 2 3.97929 2.39511C3.29719 2.74264 2.74264 3.29719 2.39511 3.97929C2 4.75471 2 5.7698 2 7.8V25.2C2 27.2302 2 28.2454 2.39511 29.0208C2.74264 29.7028 3.29719 30.2574 3.97929 30.6049C4.75471 31 5.7698 31 7.8 31Z" stroke="white" stroke-width="4" stroke-linecap="round" stroke-linejoin="round"/>
</svg>
