<svg width="33" height="33" viewBox="0 0 33 33" fill="none" xmlns="http://www.w3.org/2000/svg">
<path d="M14.6875 11.0625L9.25 16.5M9.25 16.5L14.6875 21.9375M9.25 16.5H23.75M25.2 2H7.8C5.76982 2 4.75463 2 3.97924 2.39512C3.2972 2.74258 2.74258 3.2972 2.39512 3.97924C2 4.75463 2 5.76982 2 7.8V25.2C2 27.2302 2 28.2453 2.39512 29.0207C2.74258 29.7028 3.2972 30.2574 3.97924 30.6049C4.75463 31 5.76982 31 7.8 31H25.2C27.2302 31 28.2453 31 29.0207 30.6049C29.7028 30.2574 30.2574 29.7028 30.6049 29.0207C31 28.2453 31 27.2302 31 25.2V7.8C31 5.76982 31 4.75463 30.6049 3.97924C30.2574 3.2972 29.7028 2.74258 29.0207 2.39512C28.2453 2 27.2302 2 25.2 2Z" stroke="black" stroke-width="4" stroke-linecap="round" stroke-linejoin="round"/>
</svg>
