<svg width="39" height="39" viewBox="0 0 39 39" fill="none" xmlns="http://www.w3.org/2000/svg">
<path d="M2 13.6667H37M9.77778 2V5.88889M29.2222 2V5.88889M7.83333 19.5H11.7222M17.5556 19.5H21.4444M27.2778 19.5H31.1667M7.83333 25.3333H11.7222M17.5556 25.3333H21.4444M27.2778 25.3333H31.1667M7.83333 31.1667H11.7222M17.5556 31.1667H21.4444M27.2778 31.1667H31.1667M8.22222 37H30.7778C32.9557 37 34.0448 37 34.8767 36.5761C35.6084 36.2034 36.2034 35.6084 36.5761 34.8767C37 34.0448 37 32.9557 37 30.7778V12.1111C37 9.93312 37 8.84413 36.5761 8.01226C36.2034 7.28051 35.6084 6.68559 34.8767 6.31276C34.0448 5.88889 32.9557 5.88889 30.7778 5.88889H8.22222C6.04425 5.88889 4.95524 5.88889 4.12337 6.31276C3.39162 6.68559 2.7967 7.28051 2.42387 8.01226C2 8.84413 2 9.93312 2 12.1111V30.7778C2 32.9557 2 34.0448 2.42387 34.8767C2.7967 35.6084 3.39162 36.2034 4.12337 36.5761C4.95524 37 6.04423 37 8.22222 37Z" stroke="white" stroke-width="4" stroke-linecap="round"/>
</svg>
