<svg width="19" height="20" viewBox="0 0 19 20" fill="none" xmlns="http://www.w3.org/2000/svg">
<path d="M10 4C10 3.73478 10.0948 3.48043 10.2636 3.29289C10.4324 3.10536 10.6613 3 10.9 3H18.1C18.3387 3 18.5676 3.10536 18.7364 3.29289C18.9052 3.48043 19 3.73478 19 4C19 4.26522 18.9052 4.51957 18.7364 4.70711C18.5676 4.89464 18.3387 5 18.1 5H10.9C10.6613 5 10.4324 4.89464 10.2636 4.70711C10.0948 4.51957 10 4.26522 10 4Z" fill="white"/>
<path d="M10 10C10 9.73478 10.0948 9.48043 10.2636 9.29289C10.4324 9.10536 10.6613 9 10.9 9H18.1C18.3387 9 18.5676 9.10536 18.7364 9.29289C18.9052 9.48043 19 9.73478 19 10C19 10.2652 18.9052 10.5196 18.7364 10.7071C18.5676 10.8946 18.3387 11 18.1 11H10.9C10.6613 11 10.4324 10.8946 10.2636 10.7071C10.0948 10.5196 10 10.2652 10 10Z" fill="white"/>
<path d="M10 17C10 16.7348 10.0948 16.4804 10.2636 16.2929C10.4324 16.1054 10.6613 16 10.9 16H18.1C18.3387 16 18.5676 16.1054 18.7364 16.2929C18.9052 16.4804 19 16.7348 19 17C19 17.2652 18.9052 17.5196 18.7364 17.7071C18.5676 17.8946 18.3387 18 18.1 18H10.9C10.6613 18 10.4324 17.8946 10.2636 17.7071C10.0948 17.5196 10 17.2652 10 17Z" fill="white"/>
<path d="M4.00634 9.29891e-05C3.8349 0.00746535 3.66788 0.0569134 3.51997 0.144093C3.37206 0.231272 3.24778 0.353514 3.15805 0.50008L0.114155 5.49995C0.0390221 5.65587 0 5.82679 0 5.99993C0 6.17308 0.0390221 6.34399 0.114155 6.49992C0.196342 6.65307 0.318904 6.78068 0.468485 6.86884C0.618066 6.957 0.788929 7.00234 0.962453 6.99991H7.00034C7.17178 6.99253 7.3388 6.94309 7.48671 6.85591C7.63462 6.76873 7.7589 6.64649 7.84863 6.49992C7.94732 6.35192 8 6.17793 8 5.99993C8 5.82194 7.94732 5.64794 7.84863 5.49995L4.85464 0.50008C4.77246 0.346931 4.64989 0.219322 4.50031 0.131159C4.35073 0.0429959 4.17987 -0.00233957 4.00634 9.29891e-05Z" fill="white"/>
<path d="M4 13C3.40666 13 2.82664 12.8534 2.33329 12.5787C1.83994 12.304 1.45543 11.9135 1.22836 11.4567C1.0013 10.9999 0.94189 10.4972 1.05765 10.0123C1.1734 9.52732 1.45912 9.08187 1.87868 8.73223C2.29824 8.3826 2.83279 8.1445 3.41473 8.04804C3.99667 7.95157 4.59987 8.00108 5.14805 8.1903C5.69623 8.37952 6.16476 8.69995 6.49441 9.11108C6.82405 9.5222 7 10.0055 7 10.5C7 11.163 6.68393 11.7989 6.12132 12.2678C5.55871 12.7366 4.79565 13 4 13Z" fill="white"/>
<path d="M6 20H2C1.73478 20 1.48043 19.8946 1.29289 19.7071C1.10536 19.5196 1 19.2652 1 19V15C1 14.7348 1.10536 14.4804 1.29289 14.2929C1.48043 14.1054 1.73478 14 2 14H6C6.26522 14 6.51957 14.1054 6.70711 14.2929C6.89464 14.4804 7 14.7348 7 15V19C7 19.2652 6.89464 19.5196 6.70711 19.7071C6.51957 19.8946 6.26522 20 6 20Z" fill="white"/>
</svg>
