<svg width="32" height="33" viewBox="0 0 32 33" fill="none" xmlns="http://www.w3.org/2000/svg">
<path d="M19.584 0.983997C27.424 0.983997 31.344 3.752 31.344 9.288C31.344 12.328 30.368 14.76 28.416 16.584C26.496 18.408 23.856 19.32 20.496 19.32C18.928 19.32 17.536 18.872 16.32 17.976C15.744 17.592 15.264 17.144 14.88 16.632C17.216 16.632 18.992 15.928 20.208 14.52C21.456 13.08 22.08 10.968 22.08 8.184C22.08 5.4 20.704 4.008 17.952 4.008H16.8C16.608 4.008 16.432 4.024 16.272 4.056L10.752 33H0.336L6.24 1.56C9.664 1.24 12.368 1.064 14.352 1.032C16.336 0.999998 18.08 0.983997 19.584 0.983997Z" fill="white"/>
</svg>
