<svg width="46" height="34" viewBox="0 0 46 34" fill="none" xmlns="http://www.w3.org/2000/svg">
<path d="M16.6425 29.9687C16.1049 30.4824 15.6887 30.8262 15.2635 31.0775C13.1818 32.3075 10.6172 32.3075 8.53555 31.0775C7.76845 30.6242 7.03109 29.8696 5.55635 28.3605C4.08161 26.8512 3.34423 26.0966 2.90138 25.3114C1.69954 23.1811 1.69954 20.5563 2.90138 18.426C3.34423 17.641 4.08161 16.8864 5.55635 15.3771L11.8995 8.88546C13.3743 7.37619 14.1116 6.62155 14.8787 6.16832C16.9603 4.93835 19.5251 4.93835 21.6067 6.1683C22.3737 6.62155 23.111 7.37619 24.5858 8.88546C26.0606 10.3947 26.798 11.1493 27.2409 11.9344C28.4427 14.0647 28.4427 16.6895 27.2409 18.8198C26.9953 19.255 26.6594 19.681 26.1572 20.2311M19.8428 13.7689C19.3407 14.319 19.0048 14.745 18.7592 15.1802C17.5574 17.3105 17.5574 19.9353 18.7592 22.0656C19.2021 22.8508 19.9395 23.6054 21.4143 25.1145C22.889 26.6238 23.6264 27.3784 24.3934 27.8317C26.475 29.0617 29.0397 29.0617 31.1213 27.8317C31.8885 27.3784 32.6259 26.6238 34.1007 25.1145L40.4438 18.6229C41.9185 17.1136 42.6559 16.359 43.0986 15.574C44.3005 13.4437 44.3005 10.8189 43.0986 8.68856C42.6559 7.90352 41.9185 7.14888 40.4438 5.63961C38.969 4.13035 38.2316 3.37572 37.4646 2.92248C35.3828 1.69251 32.8183 1.69251 30.7367 2.92248C30.3113 3.17375 29.8953 3.51763 29.3575 4.03138" stroke="white" stroke-width="4" stroke-linecap="round"/>
</svg>
